<?xml version="1.0" encoding="utf-8"?>
<!-- Generator: Adobe Illustrator 16.0.0, SVG Export Plug-In . SVG Version: 6.00 Build 0)  -->
<!DOCTYPE svg PUBLIC "-//W3C//DTD SVG 1.1//EN" "http://www.w3.org/Graphics/SVG/1.1/DTD/svg11.dtd">
<svg version="1.1" id="Layer_1" xmlns="http://www.w3.org/2000/svg" xmlns:xlink="http://www.w3.org/1999/xlink" x="0px" y="0px"
   width="69px" height="79.04px" viewBox="0 0 69 79.04" enable-background="new 0 0 69 79.04" xml:space="preserve">
<g id="Layer_1_1_">
  <g>
    <path fill="#FFFFFF" d="M11.663,45.861c0.728-1.496,1.607-2.729,2.639-3.7c1.032-0.971,2.072-1.899,3.123-2.79
      c1.052-0.89,1.941-1.86,2.669-2.911c0.728-1.052,1.092-2.163,1.092-3.336V30.88h7.399v2.79c0,1.617-0.343,3.104-1.03,4.458
      s-1.517,2.486-2.487,3.396l-2.911,2.607c-0.971,0.828-1.8,1.748-2.487,2.761c-0.687,1.011-1.03,2.082-1.03,3.214
      c0,1.416,0.565,2.618,1.698,3.609c1.132,0.99,2.526,1.486,4.185,1.486c1.011,0,2.053-0.224,3.124-0.668
      c1.071-0.445,1.891-0.869,2.456-1.273l0.85-0.667l4.307,5.338c-0.324,0.323-0.789,0.728-1.396,1.213
      c-0.607,0.485-1.9,1.122-3.882,1.91c-1.981,0.789-4.023,1.183-6.126,1.183c-3.599,0-6.712-1.031-9.341-3.093
      c-2.628-2.062-3.942-4.832-3.942-8.31C10.571,49.015,10.936,47.357,11.663,45.861z M21.186,18.445h7.399v7.157h-7.399V18.445z"/>
    <path fill="#FFFFFF" d="M40.415,46.165c0-1.617,0.343-3.104,1.03-4.459c0.687-1.354,1.517-2.485,2.486-3.396
      c0.971-0.909,1.951-1.779,2.941-2.608c0.99-0.828,1.83-1.748,2.518-2.76c0.688-1.011,1.031-2.082,1.031-3.214
      c0-1.416-0.566-2.608-1.697-3.579c-1.134-0.971-2.527-1.455-4.187-1.455c-1.011,0-2.062,0.212-3.154,0.637
      c-1.092,0.425-1.92,0.839-2.485,1.243l-0.851,0.667l-4.245-5.276c0.323-0.324,0.778-0.729,1.364-1.213
      c0.586-0.485,1.87-1.133,3.853-1.941c1.981-0.808,4.043-1.213,6.187-1.213c3.599,0,6.702,1.041,9.312,3.123
      c2.607,2.083,3.912,4.843,3.912,8.279c0,1.86-0.365,3.538-1.093,5.034c-0.728,1.496-1.606,2.729-2.639,3.7
      c-1.032,0.971-2.062,1.891-3.093,2.761c-1.031,0.868-1.912,1.829-2.64,2.881s-1.092,2.164-1.092,3.336v2.365h-7.46L40.415,46.165
      L40.415,46.165z M40.415,54.353h7.46v7.157h-7.46V54.353z"/>
  </g>
</g>
<g id="popup">
</g>
<g id="Layer_5">
</g>
<g id="cursores">
</g>
<g id="Layer_6">
</g>
<g id="Layer_2">
</g>
</svg>